<svg width="135" height="174" viewBox="0 0 135 174" fill="none" xmlns="http://www.w3.org/2000/svg">
<path d="M67.5 81.9735C58.7536 81.9649 50.2435 79.1308 43.235 73.8926C36.2266 68.6544 31.0941 61.2919 28.6007 52.8998C26.1074 44.5076 26.3863 35.534 29.3959 27.3133C32.4056 19.0925 37.9854 12.0636 45.3055 7.2717C52.6257 2.47976 61.2954 0.18069 70.0254 0.71634C78.7555 1.25199 87.0798 4.59375 93.7605 10.2447C100.441 15.8957 105.122 23.5542 107.106 32.0813C109.09 40.6085 108.272 49.549 104.773 57.5735C101.609 64.8319 96.3959 71.0075 89.7745 75.342C83.1532 79.6765 75.4115 81.9813 67.5 81.9735V81.9735ZM67.5 4.70681C57.8031 4.70681 48.5032 8.56287 41.6464 15.4267C34.7897 22.2905 30.9375 31.5999 30.9375 41.3068C30.9271 46.3173 31.9578 51.2751 33.9641 55.8655C36.8083 62.3957 41.4944 67.9531 47.4478 71.8561C53.4012 75.7592 60.3631 77.8382 67.4797 77.8382C74.5963 77.8382 81.5582 75.7592 87.5116 71.8561C93.465 67.9531 98.1512 62.3957 100.995 55.8655C103.016 51.2781 104.06 46.3202 104.063 41.3068C104.063 31.5999 100.21 22.2905 93.3536 15.4267C86.4968 8.56287 77.197 4.70681 67.5 4.70681V4.70681Z" fill="#787878"/>
<path d="M132.5 173.067C131.961 173.067 131.445 172.853 131.064 172.471C130.683 172.09 130.469 171.573 130.469 171.034V107.553C130.46 97.9453 128.007 88.4983 123.341 80.1027C118.674 71.707 111.949 64.6394 103.798 59.5662C100.417 66.3014 95.2318 71.9632 88.8221 75.9196C82.4123 79.8759 75.0303 81.971 67.5 81.971C59.9697 81.971 52.5877 79.8759 46.1779 75.9196C39.7682 71.9632 34.5831 66.3014 31.2016 59.5662C23.051 64.6394 16.3255 71.707 11.6593 80.1027C6.99312 88.4983 4.53999 97.9453 4.53125 107.553V171.034C4.53125 171.573 4.31725 172.09 3.93631 172.471C3.55538 172.853 3.03872 173.067 2.5 173.067C1.96128 173.067 1.44462 172.853 1.06369 172.471C0.682756 172.09 0.46875 171.573 0.46875 171.034V107.553C0.478243 96.8525 3.31727 86.3454 8.69734 77.0992C14.0774 67.853 21.8068 60.1972 31.1 54.9099C31.3475 54.7688 31.6219 54.6814 31.9054 54.6534C32.1888 54.6254 32.475 54.6573 32.7453 54.7472C33.0154 54.8377 33.2635 54.984 33.4735 55.1766C33.6835 55.3693 33.8506 55.604 33.9641 55.8656C36.8082 62.3958 41.4944 67.9532 47.4478 71.8562C53.4012 75.7593 60.3631 77.8383 67.4797 77.8383C74.5963 77.8383 81.5582 75.7593 87.5116 71.8562C93.465 67.9532 98.1511 62.3958 100.995 55.8656C101.109 55.604 101.276 55.3693 101.486 55.1766C101.696 54.984 101.944 54.8377 102.214 54.7472C102.484 54.6573 102.771 54.6254 103.054 54.6534C103.337 54.6814 103.612 54.7688 103.859 54.9099C113.16 60.192 120.898 67.8455 126.285 77.0921C131.673 86.3387 134.518 96.8485 134.531 107.553V171.034C134.531 171.573 134.317 172.09 133.936 172.471C133.555 172.853 133.039 173.067 132.5 173.067Z" fill="#787878"/>
<path d="M26.875 173.839C26.3363 173.839 25.8196 173.625 25.4387 173.244C25.0578 172.862 24.8438 172.345 24.8438 171.806V103.242C24.8438 102.703 25.0578 102.185 25.4387 101.804C25.8196 101.423 26.3363 101.208 26.875 101.208C27.4137 101.208 27.9304 101.423 28.3113 101.804C28.6922 102.185 28.9063 102.703 28.9063 103.242V171.806C28.9063 172.345 28.6922 172.862 28.3113 173.244C27.9304 173.625 27.4137 173.839 26.875 173.839Z" fill="#787878"/>
<path d="M108.125 173.839C107.586 173.839 107.07 173.625 106.689 173.244C106.308 172.862 106.094 172.345 106.094 171.806V103.242C106.094 102.703 106.308 102.185 106.689 101.804C107.07 101.423 107.586 101.208 108.125 101.208C108.664 101.208 109.18 101.423 109.561 101.804C109.942 102.185 110.156 102.703 110.156 103.242V171.806C110.156 172.345 109.942 172.862 109.561 173.244C109.18 173.625 108.664 173.839 108.125 173.839Z" fill="#787878"/>
<path d="M67.5 144.193C67.2327 144.195 66.9677 144.144 66.7202 144.042C66.4727 143.941 66.2476 143.792 66.0578 143.604L43.3078 120.83C39.0625 116.642 37.0312 112.331 37.0312 108C37.0313 104.586 38.1044 101.258 40.0986 98.4888C42.0928 95.7191 44.907 93.6478 48.1425 92.5682C51.3781 91.4885 54.871 91.4553 58.1265 92.4733C61.3819 93.4913 64.2349 95.5088 66.2813 98.2401C66.765 98.9189 67.1737 99.6485 67.5 100.416C67.8217 99.6462 68.2307 98.9162 68.7187 98.2401C70.7651 95.5088 73.6181 93.4913 76.8735 92.4733C80.129 91.4553 83.6219 91.4885 86.8575 92.5682C90.093 93.6478 92.9072 95.7191 94.9014 98.4888C96.8956 101.258 97.9688 104.586 97.9688 108C97.9688 112.331 95.9375 116.642 91.6922 120.83L68.9422 143.604C68.7524 143.792 68.5273 143.941 68.2798 144.042C68.0323 144.144 67.7673 144.195 67.5 144.193ZM53.2812 95.8001C50.0489 95.8001 46.949 97.0854 44.6634 99.3734C42.3778 101.661 41.0938 104.764 41.0938 108C41.0938 111.213 42.8 114.568 46.1922 117.943L67.5 139.293L88.8078 117.943C92.2 114.568 93.9062 111.213 93.9062 108C93.9062 105.439 93.1014 102.944 91.6058 100.867C90.1101 98.7894 87.9995 97.2358 85.5728 96.4261C83.1461 95.6164 80.5264 95.5915 78.0848 96.355C75.6432 97.1185 73.5035 98.6316 71.9688 100.68C70.3653 103.829 69.53 107.313 69.5312 110.847C69.5312 111.386 69.3172 111.903 68.9363 112.285C68.5554 112.666 68.0387 112.88 67.5 112.88C66.9613 112.88 66.4446 112.666 66.0637 112.285C65.6828 111.903 65.4688 111.386 65.4688 110.847C65.47 107.313 64.6347 103.829 63.0312 100.68C61.896 99.1649 60.424 97.9351 58.7317 97.0881C57.0394 96.241 55.1733 95.8001 53.2812 95.8001V95.8001Z" fill="#787878"/>
<path d="M75.95 135.572C75.6813 135.571 75.4154 135.516 75.1678 135.412C74.9203 135.307 74.6959 135.154 74.5078 134.962L54.6828 115.137C50.6203 111.07 48.4063 106.638 48.4063 102.307C48.4046 98.831 49.5151 95.4462 51.575 92.6483C51.8955 92.2142 52.3752 91.9254 52.9085 91.8453C53.4418 91.7652 53.9851 91.9005 54.4188 92.2213C54.8524 92.5422 55.141 93.0224 55.221 93.5562C55.301 94.0901 55.1659 94.6339 54.8453 95.068C53.2923 97.1603 52.4585 99.7001 52.4688 102.307C52.4688 105.519 54.175 108.874 57.5672 112.25L77.3719 132.095C77.7502 132.476 77.9626 132.991 77.9626 133.529C77.9626 134.066 77.7502 134.581 77.3719 134.962C76.9969 135.345 76.4858 135.564 75.95 135.572V135.572Z" fill="#787878"/>
<path d="M67.5 112.88C67.1249 112.879 66.7574 112.774 66.4383 112.576C66.1192 112.379 65.8609 112.097 65.6921 111.762C65.4512 111.282 65.41 110.725 65.5775 110.215C65.7449 109.704 66.1075 109.281 66.5859 109.037L73.1062 105.763C75.5375 104.534 77.6301 102.725 79.2 100.497C80.4235 98.6869 82.069 97.2022 83.9943 96.1713C85.9195 95.1403 88.0666 94.5942 90.25 94.5801C90.7887 94.5801 91.3053 94.7943 91.6863 95.1756C92.0672 95.5569 92.2812 96.0741 92.2812 96.6134C92.2812 97.1527 92.0672 97.6699 91.6863 98.0512C91.3053 98.4325 90.7887 98.6467 90.25 98.6467C88.6916 98.6412 87.1565 99.0252 85.7838 99.7637C84.4111 100.502 83.2443 101.572 82.389 102.876C80.466 105.621 77.9084 107.861 74.9343 109.403L68.414 112.656C68.1331 112.807 67.8186 112.884 67.5 112.88V112.88Z" fill="#787878"/>
</svg>
