<svg viewBox="0 0 45 45" fill="none" xmlns="http://www.w3.org/2000/svg">
<path d="M33.3538 14.7217C33.3538 8.70117 28.4759 3.82324 22.4554 3.82324C16.4349 3.82324 11.557 8.70117 11.557 14.7217C11.557 18.3604 13.3412 21.5859 16.0833 23.5635C16.0658 23.5723 16.0526 23.5767 16.0438 23.5811C14.0794 24.4116 12.3172 25.6025 10.8011 27.123C9.285 28.6392 8.09848 30.4058 7.26791 32.3745C6.45492 34.2993 6.01986 36.3428 5.97592 38.4434C5.97152 38.6411 6.12973 38.8037 6.32748 38.8037H8.95981C9.14877 38.8037 9.30697 38.6499 9.31137 38.4609C9.39926 35.0684 10.7572 31.8911 13.161 29.4829C15.6439 26.9912 18.9398 25.6201 22.4554 25.6201C28.4759 25.6201 33.3538 20.7422 33.3538 14.7217ZM22.4554 22.2803C18.2806 22.2803 14.8968 18.8965 14.8968 14.7217C14.8968 10.5469 18.2806 7.16309 22.4554 7.16309C26.6302 7.16309 30.014 10.5469 30.014 14.7217C30.014 18.8965 26.6302 22.2803 22.4554 22.2803ZM27.0697 31.9922H38.6712C38.8646 31.9922 39.0228 31.834 39.0228 31.6406V29.1797C39.0228 28.9863 38.8646 28.8281 38.6712 28.8281H30.9149L32.9891 26.187C33.0374 26.1255 33.0638 26.0464 33.0638 25.9717C33.0638 25.7783 32.9056 25.6201 32.7122 25.6201H29.5218C29.3065 25.6201 29.1043 25.7212 28.9681 25.8882L25.9578 29.7158C25.7645 29.9619 25.659 30.2695 25.659 30.5859C25.6634 31.3638 26.2918 31.9922 27.0697 31.9922ZM37.6165 34.8047H26.015C25.8216 34.8047 25.6634 34.9629 25.6634 35.1562V37.6172C25.6634 37.8105 25.8216 37.9688 26.015 37.9688H33.7713L31.6971 40.6099C31.6488 40.6714 31.6224 40.7505 31.6224 40.8252C31.6224 41.0186 31.7806 41.1768 31.974 41.1768H35.1644C35.3797 41.1768 35.5819 41.0757 35.7181 40.9087L38.7284 37.0811C38.9217 36.835 39.0272 36.5273 39.0272 36.2109C39.0228 35.4331 38.3944 34.8047 37.6165 34.8047Z" fill="#ffffff"/>
</svg>
