<?xml version="1.0" encoding="UTF-8"?><svg id="Darkmode_BTN" xmlns="http://www.w3.org/2000/svg" viewBox="0 0 123 123"><defs><style>.cls-1,.cls-2{fill:none;stroke:#000;stroke-miterlimit:10;}.cls-2{stroke-linecap:round;stroke-width:11px;}</style></defs><g><path d="M61.5,93.5c-17.65,0-32-14.35-32-32S43.85,29.5,61.5,29.5s32,14.35,32,32-14.35,32-32,32Zm-16.26-48.26c-4.34,4.34-6.74,10.12-6.74,16.26,0,12.68,10.32,23,23,23,6.14,0,11.92-2.39,16.26-6.74l.35-.35L45.59,44.88l-.35,.35Z"/><path d="M61.5,30c17.37,0,31.5,14.13,31.5,31.5s-14.13,31.5-31.5,31.5-31.5-14.13-31.5-31.5,14.13-31.5,31.5-31.5m0,55c6.28,0,12.18-2.44,16.62-6.88l.71-.71-.71-.71-31.82-31.82-.71-.71-.71,.71c-4.44,4.44-6.88,10.34-6.88,16.62,0,12.96,10.54,23.5,23.5,23.5m0-56c-17.95,0-32.5,14.55-32.5,32.5s14.55,32.5,32.5,32.5,32.5-14.55,32.5-32.5-14.55-32.5-32.5-32.5h0Zm0,55c-12.43,0-22.5-10.07-22.5-22.5,0-6.22,2.52-11.84,6.59-15.91l31.82,31.82c-4.07,4.07-9.69,6.59-15.91,6.59h0Z"/></g><line class="cls-1" x1="77.5" y1="77.5" x2="77.41" y2="77.41"/><line class="cls-1" x1="45.59" y1="45.59" x2="45.5" y2="45.5"/><line class="cls-2" x1="61.5" y1="5.5" x2="61.5" y2="18.5"/><line class="cls-2" x1="21.9" y1="21.9" x2="31.09" y2="31.09"/><line class="cls-2" x1="5.5" y1="61.5" x2="18.5" y2="61.5"/><line class="cls-2" x1="21.9" y1="101.1" x2="31.09" y2="91.91"/><line class="cls-2" x1="61.5" y1="117.5" x2="61.5" y2="104.5"/><line class="cls-2" x1="101.1" y1="101.1" x2="91.91" y2="91.91"/><line class="cls-2" x1="117.5" y1="61.5" x2="104.5" y2="61.5"/><line class="cls-2" x1="101.1" y1="21.9" x2="91.91" y2="31.09"/></svg>