<svg xmlns="http://www.w3.org/2000/svg" fill="none" viewBox="0 0 541.24 216">
<g clip-path="url(#clip0_1297_1117)">
<path d="M0 149.46L34.08 81.99L0 27.52V149.46Z" fill="#F38D20"/>
<path d="M15.47 216L100 138.25L45.96 161.54L15.47 216Z" fill="#F2A024"/>
<path d="M82.01 0L0.710007 157.3L53.62 130.48L99.38 75.13L82.01 0Z" fill="#F2A024"/>
<path d="M53.62 130.48L0.710007 157.3L45.96 161.54L100 138.25L53.62 130.48Z" fill="#F38D20"/>
</g>
<path d="M239.56 134.336C239.56 140.517 237.888 145.685 234.544 149.84C231.2 153.893 226.741 156.933 221.168 158.96C215.696 160.987 209.616 162 202.928 162H150.336V54.08H210.376C215.443 54.08 219.8 55.448 223.448 58.184C227.096 60.8187 229.933 64.264 231.96 68.52C233.987 72.776 235 77.184 235 81.744C235 86.8107 233.683 91.6747 231.048 96.336C228.413 100.997 224.563 104.443 219.496 106.672C225.576 108.496 230.44 111.739 234.088 116.4C237.736 121.061 239.56 127.04 239.56 134.336ZM175.264 75.36V97.704H199.736C202.472 97.704 204.904 96.792 207.032 94.968C209.16 93.144 210.224 90.3067 210.224 86.456C210.224 82.9093 209.261 80.1733 207.336 78.248C205.512 76.3227 203.283 75.36 200.648 75.36H175.264ZM214.176 129.32C214.176 125.976 213.213 123.139 211.288 120.808C209.363 118.477 206.931 117.312 203.992 117.312H175.264V140.872H202.928C206.069 140.872 208.704 139.808 210.832 137.68C213.061 135.451 214.176 132.664 214.176 129.32ZM252.266 73.08V51.04H276.586V73.08H252.266ZM252.266 162V82.2H276.586V162H252.266ZM323.787 163.52C316.896 163.52 310.208 162.405 303.723 160.176C297.339 157.845 291.918 154.552 287.459 150.296L295.819 134.944C305.648 142.139 314.718 145.736 323.027 145.736C326.168 145.736 328.6 145.229 330.323 144.216C332.046 143.203 332.907 141.632 332.907 139.504C332.907 137.275 331.742 135.704 329.411 134.792C327.08 133.779 323.635 132.613 319.075 131.296C312.995 129.269 307.928 127.293 303.875 125.368C299.822 123.443 296.782 121.112 294.755 118.376C292.728 115.64 291.715 111.992 291.715 107.432C291.715 99.4267 294.704 92.992 300.683 88.128C306.662 83.1627 314.768 80.68 325.003 80.68C330.475 80.68 335.795 81.5413 340.963 83.264C346.232 84.9867 351.147 87.8747 355.707 91.928L346.283 107.128C341.723 103.987 337.67 101.707 334.123 100.288C330.576 98.8693 327.131 98.16 323.787 98.16C321.152 98.16 318.923 98.6667 317.099 99.68C315.275 100.592 314.363 102.213 314.363 104.544C314.363 106.773 315.376 108.445 317.403 109.56C319.43 110.573 322.571 111.688 326.827 112.904C333.312 114.829 338.734 116.805 343.091 118.832C347.55 120.757 350.843 123.189 352.971 126.128C355.2 128.965 356.315 132.765 356.315 137.528C356.315 145.635 353.376 152.019 347.499 156.68C341.622 161.24 333.718 163.52 323.787 163.52ZM406.942 163.52C397.923 163.52 390.222 161.645 383.838 157.896C377.454 154.147 372.539 149.181 369.094 143C365.75 136.819 364.078 130.131 364.078 122.936C364.078 115.235 365.75 108.192 369.094 101.808C372.438 95.424 377.302 90.3067 383.686 86.456C390.07 82.6053 397.822 80.68 406.942 80.68C415.96 80.68 423.662 82.6053 430.046 86.456C436.43 90.3067 441.243 95.3733 444.486 101.656C447.83 107.939 449.502 114.677 449.502 121.872C449.502 124.811 449.299 127.395 448.894 129.624H389.918C390.323 134.995 392.248 139.099 395.694 141.936C399.24 144.672 403.243 146.04 407.702 146.04C411.248 146.04 414.643 145.179 417.886 143.456C421.128 141.733 423.358 139.403 424.574 136.464L445.246 142.24C442.104 148.523 437.19 153.64 430.502 157.592C423.915 161.544 416.062 163.52 406.942 163.52ZM389.31 114.728H423.966C423.459 109.661 421.584 105.659 418.342 102.72C415.2 99.68 411.299 98.16 406.638 98.16C401.976 98.16 398.024 99.68 394.782 102.72C391.64 105.76 389.816 109.763 389.31 114.728ZM498.524 163.52C489.404 163.52 481.652 161.595 475.268 157.744C468.985 153.893 464.172 148.827 460.828 142.544C457.484 136.261 455.812 129.472 455.812 122.176C455.812 114.779 457.484 107.939 460.828 101.656C464.172 95.3733 469.036 90.3067 475.42 86.456C481.804 82.6053 489.505 80.68 498.524 80.68C507.543 80.68 515.244 82.6053 521.628 86.456C528.012 90.3067 532.876 95.3733 536.22 101.656C539.564 107.939 541.236 114.779 541.236 122.176C541.236 129.472 539.564 136.261 536.22 142.544C532.876 148.827 528.012 153.893 521.628 157.744C515.244 161.595 507.543 163.52 498.524 163.52ZM480.74 122.176C480.74 128.357 482.412 133.373 485.756 137.224C489.201 141.075 493.457 143 498.524 143C503.489 143 507.644 141.075 510.988 137.224C514.433 133.373 516.156 128.357 516.156 122.176C516.156 115.995 514.433 110.979 510.988 107.128C507.644 103.277 503.489 101.352 498.524 101.352C493.457 101.352 489.201 103.277 485.756 107.128C482.412 110.979 480.74 115.995 480.74 122.176Z" fill="#F2A024"/>
<defs>
<clipPath id="clip0_1297_1117">
<rect width="100" height="216" fill="white"/>
</clipPath>
</defs>
</svg>