<svg xmlns="http://www.w3.org/2000/svg" viewBox="0 0 730 216"><title>SPARCS</title><polygon points="0 149.46 34.08 81.99 0 27.52 0 149.46" style="fill:#ec8f26"/><polygon points="15.47 216 100 138.25 45.96 161.54 15.47 216" style="fill:#eba12a"/><polygon points="82.01 0 0.71 157.3 53.62 130.48 99.38 75.13 82.01 0" style="fill:#eba12a"/><polygon points="53.62 130.48 0.71 157.3 45.96 161.54 100 138.25 53.62 130.48" style="fill:#ec8f26"/><path d="M215.09,85.7a15.05,15.05,0,0,0-3.19-2.28,61,61,0,0,0-6.84-3.5,65.77,65.77,0,0,0-9-3.19,35.94,35.94,0,0,0-9.73-1.37q-13.38,0-13.38,9a7.09,7.09,0,0,0,1.45,4.56,12.92,12.92,0,0,0,4.25,3.27,39.56,39.56,0,0,0,7.07,2.66Q190,96,195.63,97.55a130.27,130.27,0,0,1,14,4.64,37.64,37.64,0,0,1,10.56,6.23,25.24,25.24,0,0,1,6.69,9,31.45,31.45,0,0,1,2.35,12.77q0,9.12-3.42,15.43a28.73,28.73,0,0,1-9,10.18,38.24,38.24,0,0,1-12.92,5.63,64.63,64.63,0,0,1-15.05,1.75,83.77,83.77,0,0,1-12.16-.92,86.25,86.25,0,0,1-12.16-2.66A93.72,93.72,0,0,1,153,155.46a63.8,63.8,0,0,1-10.26-5.62l10.94-21.74a21,21,0,0,0,3.95,2.89,59,59,0,0,0,8.29,4.26,84.68,84.68,0,0,0,11,3.8,46.36,46.36,0,0,0,12.31,1.67q13.22,0,13.22-8.06a6.82,6.82,0,0,0-2-5,18.56,18.56,0,0,0-5.48-3.57,58.33,58.33,0,0,0-8.28-3q-4.78-1.36-10.41-3a89.08,89.08,0,0,1-12.92-4.94,34,34,0,0,1-9-6.15A22.45,22.45,0,0,1,149,98.92a29.78,29.78,0,0,1-1.74-10.64,33.88,33.88,0,0,1,3.19-15,32.55,32.55,0,0,1,8.66-11,37.73,37.73,0,0,1,12.69-6.76,50.5,50.5,0,0,1,15.28-2.28,58,58,0,0,1,11.1,1.06A82.84,82.84,0,0,1,208.7,57a73.8,73.8,0,0,1,9.35,3.8q4.33,2.13,8,4.25Z" style="fill:#eba12a"/><path d="M243.81,162V54.08h46.06a31.61,31.61,0,0,1,14.21,3.19,36.48,36.48,0,0,1,11.1,8.36,39.9,39.9,0,0,1,7.29,11.71,34.63,34.63,0,0,1,2.66,13.22,37.92,37.92,0,0,1-2.5,13.68,39.11,39.11,0,0,1-7,11.7,32.86,32.86,0,0,1-10.86,8.21,32.43,32.43,0,0,1-14.14,3H268.74V162Zm24.93-56.54h20.37a9.65,9.65,0,0,0,7.6-3.8q3.19-3.81,3.19-11.1a19.31,19.31,0,0,0-1-6.54,13.39,13.39,0,0,0-2.66-4.56,10.23,10.23,0,0,0-3.8-2.66A11.68,11.68,0,0,0,288.2,76H268.74Z" style="fill:#ec9b29"/><path d="M361,54.08h22.5L422.87,162H397.33L389,137.83H355.38L347.17,162H321.64Zm23.87,66.58L372.25,82.5l-12.92,38.16Z" style="fill:#ed9528"/><path d="M433.51,162V54.08h48.64a31.3,31.3,0,0,1,14.06,3.19,37.53,37.53,0,0,1,11.17,8.36,39.12,39.12,0,0,1,7.37,11.71,34.82,34.82,0,0,1,2.66,13.22A37.46,37.46,0,0,1,512.7,109a33.07,33.07,0,0,1-12.92,12.92L523.49,162H495.37L474.7,127.19H458.44V162Zm24.93-56.54h22.8c2.93,0,5.47-1.4,7.6-4.18A17.22,17.22,0,0,0,492,90.56q0-6.69-3.65-10.64c-2.43-2.63-5.07-4-7.9-4h-22Z" style="fill:#ed8e27"/><path d="M529.12,107.13a54.46,54.46,0,0,1,3.64-19.38A52.87,52.87,0,0,1,543.4,70.5a54.14,54.14,0,0,1,17-12.32,53,53,0,0,1,22.8-4.71q15.19,0,26.37,6.54a42.22,42.22,0,0,1,16.64,17L607.09,90.41a22.25,22.25,0,0,0-4.63-7.07,25.54,25.54,0,0,0-6.16-4.56,25.13,25.13,0,0,0-6.84-2.43,35.27,35.27,0,0,0-6.84-.69,25.77,25.77,0,0,0-12.46,2.89A27.47,27.47,0,0,0,561.34,86a31.11,31.11,0,0,0-5.17,10.34A42,42,0,0,0,554.5,108a38.57,38.57,0,0,0,2,12.31,32.56,32.56,0,0,0,5.7,10.49,27.51,27.51,0,0,0,9,7.22,25.74,25.74,0,0,0,11.78,2.66,30.2,30.2,0,0,0,6.92-.84,27.5,27.5,0,0,0,6.84-2.58,24.07,24.07,0,0,0,6-4.56,21.06,21.06,0,0,0,4.41-6.92l20.37,12a31.75,31.75,0,0,1-7.22,10.64,44.69,44.69,0,0,1-11,7.91,60.5,60.5,0,0,1-26.9,6.53,48.21,48.21,0,0,1-21.51-4.79,54.29,54.29,0,0,1-16.87-12.69,58.11,58.11,0,0,1-11-17.93A56.19,56.19,0,0,1,529.12,107.13Z" style="fill:#ee8726"/><path d="M704.67,85.7a14.48,14.48,0,0,0-3.19-2.28,59.26,59.26,0,0,0-6.84-3.5,64.82,64.82,0,0,0-9-3.19A35.81,35.81,0,0,0,676,75.36q-13.38,0-13.38,9A7.15,7.15,0,0,0,664,88.89a13,13,0,0,0,4.26,3.27,39.27,39.27,0,0,0,7.07,2.66q4.24,1.22,9.88,2.73a129.32,129.32,0,0,1,14,4.64,37.56,37.56,0,0,1,10.57,6.23,25.33,25.33,0,0,1,6.68,9,31.44,31.44,0,0,1,2.36,12.77q0,9.12-3.42,15.43a28.82,28.82,0,0,1-9,10.18,38.24,38.24,0,0,1-12.92,5.63,64.69,64.69,0,0,1-15,1.75,83.66,83.66,0,0,1-12.16-.92,85.94,85.94,0,0,1-12.16-2.66,94.48,94.48,0,0,1-11.48-4.18,63.8,63.8,0,0,1-10.26-5.62l10.95-21.74a21,21,0,0,0,4,2.89,59.35,59.35,0,0,0,8.28,4.26,85.2,85.2,0,0,0,11,3.8,46.41,46.41,0,0,0,12.31,1.67q13.23,0,13.23-8.06a6.79,6.79,0,0,0-2-5,18.5,18.5,0,0,0-5.47-3.57,58.33,58.33,0,0,0-8.28-3q-4.8-1.36-10.42-3A89.53,89.53,0,0,1,653,113.13a34.14,34.14,0,0,1-9-6.15,22.32,22.32,0,0,1-5.32-8.06,29.55,29.55,0,0,1-1.75-10.64,34,34,0,0,1,3.19-15,32.58,32.58,0,0,1,8.67-11,37.73,37.73,0,0,1,12.69-6.76,50.4,50.4,0,0,1,15.28-2.28,58,58,0,0,1,11.09,1.06A82.56,82.56,0,0,1,698.29,57a74.41,74.41,0,0,1,9.35,3.8q4.33,2.13,8,4.25Z" style="fill:#ee8024"/></svg>